<?xml version="1.0" standalone="no"?>
<!DOCTYPE svg PUBLIC "-//W3C//DTD SVG 20010904//EN"
 "http://www.w3.org/TR/2001/REC-SVG-20010904/DTD/svg10.dtd">
<svg version="1.0" xmlns="http://www.w3.org/2000/svg"
 width="256.000000pt" height="256.000000pt" viewBox="0 0 256.000000 256.000000"
 preserveAspectRatio="xMidYMid meet">

<g transform="translate(0.000000,256.000000) scale(0.100000,-0.100000)"
fill="#000000" stroke="none">
<path d="M675 2133 c-11 -3 -26 -10 -33 -16 -18 -15 3 -27 49 -27 92 0 265
-63 401 -146 33 -20 61 -35 62 -33 15 17 26 54 26 83 0 27 -6 39 -27 54 -41
27 -123 60 -195 77 -59 14 -238 19 -283 8z"/>
<path d="M1582 2120 c-40 -10 -101 -34 -135 -52 -55 -29 -62 -37 -65 -67 -3
-31 14 -91 25 -91 3 0 31 16 62 35 135 82 309 145 400 145 50 0 67 12 45 31
-29 24 -242 23 -332 -1z"/>
<path d="M2271 1801 c15 -44 35 -116 43 -161 19 -96 21 -276 5 -366 -11 -63
-11 -63 18 -88 l28 -24 6 106 c12 207 -18 384 -90 545 -17 37 -32 67 -34 67
-2 0 8 -36 24 -79z"/>
<path d="M653 1754 c-15 -39 75 -134 154 -164 128 -48 274 -2 343 107 27 42
28 49 15 62 -13 13 -22 11 -82 -19 -64 -32 -74 -35 -168 -35 -92 0 -105 2
-169 33 -78 37 -84 38 -93 16z"/>
<path d="M1391 1757 c-17 -21 40 -101 96 -137 57 -36 102 -50 165 -50 55 0
142 31 178 63 37 33 80 92 80 110 0 30 -22 29 -93 -4 -67 -32 -79 -34 -172
-34 -93 0 -104 2 -163 33 -71 36 -75 37 -91 19z"/>
<path d="M707 1420 c-14 -11 -31 -36 -37 -55 -6 -19 -13 -35 -14 -35 -2 0 -17
5 -34 11 -23 8 -41 8 -65 0 -53 -18 -77 -51 -84 -113 l-6 -55 -41 4 c-56 5
-88 -14 -104 -62 -9 -26 -17 -147 -24 -347 -10 -279 -10 -313 6 -378 23 -94
47 -146 92 -198 78 -92 180 -128 329 -119 172 11 278 62 372 177 28 35 62 68
75 73 12 5 95 13 183 18 165 9 206 15 314 51 54 17 77 19 160 14 93 -6 98 -6
161 25 49 23 86 33 150 38 99 9 150 31 203 90 50 56 67 101 67 183 0 38 7 103
16 145 17 81 13 140 -11 183 -14 24 -14 22 -15 -33 0 -38 -7 -72 -21 -98 -18
-37 -19 -46 -9 -91 38 -157 -95 -328 -255 -328 -31 0 -66 5 -77 11 -17 9 -26
6 -58 -26 -64 -63 -165 -77 -232 -33 -20 13 -28 12 -81 -9 -32 -13 -95 -33
-140 -44 -98 -24 -297 -38 -297 -21 0 24 71 121 135 185 63 63 66 68 63 108
-4 57 -47 82 -129 76 -66 -6 -106 -25 -165 -79 -25 -23 -46 -39 -48 -37 -8 8
-8 35 -7 230 l1 197 43 17 c101 41 286 27 384 -30 81 -48 119 -24 75 46 -87
136 -264 193 -429 137 l-71 -24 -6 37 c-10 65 -91 102 -163 76 -19 -7 -23 -5
-23 13 0 12 -15 37 -34 56 -29 29 -41 34 -79 34 -29 0 -53 -7 -70 -20z m123
-40 c19 -19 20 -33 20 -340 0 -278 2 -320 15 -320 8 0 15 -4 15 -10 0 -16 -27
-11 -34 6 -3 9 -6 156 -6 328 0 299 -1 314 -20 331 -15 14 -29 16 -62 11 -30
-4 -39 -3 -28 4 25 17 79 11 100 -10z m170 -80 c11 -6 24 -20 30 -33 10 -20 9
-20 -8 3 -15 18 -30 24 -57 24 -27 0 -42 -6 -57 -24 -17 -22 -18 -23 -9 -3 20
39 63 53 101 33z m-359 -17 c13 -15 12 -15 -8 -5 -31 17 -73 15 -95 -5 -20
-18 -25 -4 -6 15 18 18 93 15 109 -5z m16 -240 c-1 -43 -3 -10 -3 72 0 83 2
118 3 78 2 -40 2 -107 0 -150z m-203 78 c14 -16 16 -42 13 -212 l-2 -194 -3
196 c-1 136 -6 199 -14 207 -17 17 -58 15 -82 -5 -21 -18 -21 -18 -2 5 23 27
67 29 90 3z m583 -213 c-2 -18 -4 -4 -4 32 0 36 2 50 4 33 2 -18 2 -48 0 -65z
m-690 -70 c-2 -13 -4 -3 -4 22 0 25 2 35 4 23 2 -13 2 -33 0 -45z m683 -96 l0
-107 -32 -14 c-18 -8 -55 -38 -82 -65 -27 -28 -44 -41 -38 -30 14 27 86 92
118 106 23 11 24 15 24 115 0 56 2 103 5 103 3 0 5 -48 5 -108z m330 -22 c10
-7 4 -8 -20 -4 -65 11 -116 -12 -188 -81 -49 -48 -72 -63 -93 -63 -29 1 -88
-31 -120 -65 -10 -11 -21 -18 -24 -15 -7 7 59 60 103 82 19 10 40 15 48 12 9
-4 40 18 80 55 36 33 79 67 97 74 37 16 95 19 117 5z m-857 -17 c-7 -2 -19 -2
-25 0 -7 3 -2 5 12 5 14 0 19 -2 13 -5z m190 0 c-7 -2 -19 -2 -25 0 -7 3 -2 5
12 5 14 0 19 -2 13 -5z m-356 -65 c-2 -13 -4 -5 -4 17 -1 22 1 32 4 23 2 -10
2 -28 0 -40z m1018 19 c-16 -12 -50 -40 -75 -62 -25 -22 -36 -29 -25 -16 23
27 113 101 123 101 4 0 -6 -11 -23 -23z m-115 -111 c0 -2 -8 -10 -17 -17 -16
-13 -17 -12 -4 4 13 16 21 21 21 13z m-358 -105 c-15 -21 -29 -37 -31 -35 -4
4 47 74 54 74 3 0 -8 -18 -23 -39z"/>
</g>
</svg>
