<svg xmlns="http://www.w3.org/2000/svg" xmlns:xlink="http://www.w3.org/1999/xlink" width="500" zoomAndPan="magnify" viewBox="0 0 375 374.999991" height="500" preserveAspectRatio="xMidYMid meet" version="1.0"><defs><g><g id="id1"/><g id="id2"/></g><clipPath id="id3"><path d="M 37.191406 37.5 L 337.441406 37.5 L 337.441406 204 L 37.191406 204 Z M 37.191406 37.5 " clip-rule="nonzero"/></clipPath><clipPath id="id4"><path d="M 187.316406 158.132812 C 166.746094 158.132812 150.011719 141.363281 150.011719 120.75 C 150.011719 100.136719 166.746094 83.367188 187.316406 83.367188 C 207.886719 83.367188 224.621094 100.136719 224.621094 120.75 C 224.621094 141.363281 207.886719 158.132812 187.316406 158.132812 Z M 244.3125 129.085938 C 244.941406 125.882812 247.742188 123.578125 251 123.578125 L 334.617188 123.578125 C 336.175781 123.578125 337.441406 122.3125 337.441406 120.75 C 337.441406 119.1875 336.175781 117.921875 334.617188 117.921875 L 251 117.921875 C 247.746094 117.921875 244.941406 115.621094 244.316406 112.421875 C 244.265625 112.171875 244.214844 111.921875 244.160156 111.667969 C 243.253906 107.441406 246.550781 103.472656 250.867188 103.472656 L 304.519531 103.472656 C 306.082031 103.472656 307.34375 102.207031 307.34375 100.644531 C 307.34375 99.082031 306.082031 97.816406 304.519531 97.816406 L 242.0625 97.816406 C 239.878906 97.816406 237.863281 96.738281 236.554688 94.988281 C 236.433594 94.828125 236.3125 94.667969 236.191406 94.507812 C 232.6875 89.957031 235.867188 83.367188 241.601562 83.367188 L 274.425781 83.367188 C 275.984375 83.367188 277.246094 82.101562 277.246094 80.539062 C 277.246094 78.976562 275.984375 77.707031 274.425781 77.707031 L 227.386719 77.707031 C 223.621094 77.707031 220.257812 74.953125 219.898438 71.195312 C 219.492188 66.886719 222.859375 63.261719 227.074219 63.261719 L 244.328125 63.261719 C 245.886719 63.261719 247.152344 61.996094 247.152344 60.433594 C 247.152344 58.871094 245.886719 57.601562 244.328125 57.601562 L 212.523438 57.601562 C 208.757812 57.601562 205.394531 54.84375 205.035156 51.089844 C 204.628906 46.78125 207.996094 43.15625 212.210938 43.15625 L 214.230469 43.15625 C 215.789062 43.15625 217.054688 41.890625 217.054688 40.328125 C 217.054688 38.761719 215.789062 37.496094 214.230469 37.496094 L 160.402344 37.496094 C 158.84375 37.496094 157.578125 38.761719 157.578125 40.328125 C 157.578125 41.890625 158.84375 43.15625 160.402344 43.15625 L 162.421875 43.15625 C 166.636719 43.15625 170.003906 46.78125 169.59375 51.089844 C 169.238281 54.84375 165.875 57.601562 162.109375 57.601562 L 130.304688 57.601562 C 128.746094 57.601562 127.480469 58.871094 127.480469 60.433594 C 127.480469 61.996094 128.746094 63.261719 130.304688 63.261719 L 147.554688 63.261719 C 151.773438 63.261719 155.140625 66.886719 154.730469 71.195312 C 154.375 74.953125 151.011719 77.707031 147.246094 77.707031 L 100.207031 77.707031 C 98.648438 77.707031 97.382812 78.976562 97.382812 80.539062 C 97.382812 82.101562 98.648438 83.367188 100.207031 83.367188 L 133.03125 83.367188 C 138.765625 83.367188 141.945312 89.957031 138.441406 94.507812 C 138.320312 94.667969 138.199219 94.828125 138.078125 94.988281 C 136.769531 96.738281 134.753906 97.816406 132.570312 97.816406 L 70.113281 97.816406 C 68.550781 97.816406 67.289062 99.082031 67.289062 100.644531 C 67.289062 102.207031 68.550781 103.472656 70.113281 103.472656 L 123.765625 103.472656 C 128.082031 103.472656 131.378906 107.441406 130.472656 111.667969 C 130.417969 111.921875 130.367188 112.171875 130.316406 112.421875 C 129.691406 115.621094 126.886719 117.921875 123.632812 117.921875 L 40.015625 117.921875 C 38.457031 117.921875 37.191406 119.1875 37.191406 120.75 C 37.191406 122.3125 38.457031 123.578125 40.015625 123.578125 L 123.632812 123.578125 C 126.890625 123.578125 129.691406 125.882812 130.320312 129.085938 C 130.363281 129.3125 130.410156 129.542969 130.460938 129.769531 C 131.363281 134.015625 128.191406 138.027344 123.859375 138.027344 L 70.113281 138.027344 C 68.550781 138.027344 67.289062 139.292969 67.289062 140.855469 C 67.289062 142.417969 68.550781 143.683594 70.113281 143.683594 L 132.570312 143.683594 C 134.734375 143.683594 136.75 144.730469 138.042969 146.464844 C 138.191406 146.664062 138.335938 146.855469 138.488281 147.050781 C 141.972656 151.5625 138.597656 158.132812 132.902344 158.132812 L 100.207031 158.132812 C 98.648438 158.132812 97.382812 159.398438 97.382812 160.960938 C 97.382812 162.523438 98.648438 163.792969 100.207031 163.792969 L 147.554688 163.792969 C 151.773438 163.792969 155.140625 167.417969 154.730469 171.726562 C 154.375 175.480469 151.011719 178.238281 147.246094 178.238281 L 130.304688 178.238281 C 128.746094 178.238281 127.480469 179.503906 127.480469 181.066406 C 127.480469 182.628906 128.746094 183.898438 130.304688 183.898438 L 162.421875 183.898438 C 166.636719 183.898438 170.003906 187.519531 169.59375 191.828125 C 169.238281 195.585938 165.875 198.34375 162.109375 198.34375 L 160.402344 198.34375 C 158.84375 198.34375 157.578125 199.609375 157.578125 201.171875 C 157.578125 202.734375 158.84375 204.003906 160.402344 204.003906 L 214.230469 204.003906 C 215.789062 204.003906 217.054688 202.734375 217.054688 201.171875 C 217.054688 199.609375 215.789062 198.34375 214.230469 198.34375 L 212.523438 198.34375 C 208.757812 198.34375 205.394531 195.585938 205.035156 191.828125 C 204.628906 187.519531 207.996094 183.898438 212.210938 183.898438 L 244.328125 183.898438 C 245.886719 183.898438 247.152344 182.628906 247.152344 181.066406 C 247.152344 179.503906 245.886719 178.238281 244.328125 178.238281 L 227.386719 178.238281 C 223.621094 178.238281 220.257812 175.480469 219.898438 171.726562 C 219.492188 167.417969 222.859375 163.792969 227.074219 163.792969 L 274.425781 163.792969 C 275.984375 163.792969 277.246094 162.523438 277.246094 160.960938 C 277.246094 159.398438 275.984375 158.132812 274.425781 158.132812 L 241.730469 158.132812 C 236.035156 158.132812 232.660156 151.5625 236.144531 147.050781 C 236.292969 146.855469 236.441406 146.664062 236.589844 146.464844 C 237.882812 144.730469 239.898438 143.683594 242.0625 143.683594 L 304.519531 143.683594 C 306.082031 143.683594 307.34375 142.417969 307.34375 140.855469 C 307.34375 139.292969 306.082031 138.027344 304.519531 138.027344 L 250.769531 138.027344 C 246.441406 138.027344 243.269531 134.015625 244.171875 129.769531 C 244.21875 129.542969 244.269531 129.3125 244.3125 129.085938 Z M 244.3125 129.085938 " clip-rule="nonzero"/></clipPath><clipPath id="id5"><path d="M 187.316406 158.132812 C 166.746094 158.132812 150.011719 141.363281 150.011719 120.75 C 150.011719 100.136719 166.746094 83.367188 187.316406 83.367188 C 207.886719 83.367188 224.621094 100.136719 224.621094 120.75 C 224.621094 141.363281 207.886719 158.132812 187.316406 158.132812 Z M 244.3125 129.085938 C 244.941406 125.882812 247.742188 123.578125 251 123.578125 L 334.617188 123.578125 C 336.175781 123.578125 337.441406 122.3125 337.441406 120.75 C 337.441406 119.1875 336.175781 117.921875 334.617188 117.921875 L 251 117.921875 C 247.746094 117.921875 244.941406 115.621094 244.316406 112.421875 C 244.265625 112.171875 244.214844 111.921875 244.160156 111.667969 C 243.253906 107.441406 246.550781 103.472656 250.867188 103.472656 L 304.519531 103.472656 C 306.082031 103.472656 307.34375 102.207031 307.34375 100.644531 C 307.34375 99.082031 306.082031 97.816406 304.519531 97.816406 L 242.0625 97.816406 C 239.878906 97.816406 237.863281 96.738281 236.554688 94.988281 C 236.433594 94.828125 236.3125 94.667969 236.191406 94.507812 C 232.6875 89.957031 235.867188 83.367188 241.601562 83.367188 L 274.425781 83.367188 C 275.984375 83.367188 277.246094 82.101562 277.246094 80.539062 C 277.246094 78.976562 275.984375 77.707031 274.425781 77.707031 L 227.386719 77.707031 C 223.621094 77.707031 220.257812 74.953125 219.898438 71.195312 C 219.492188 66.886719 222.859375 63.261719 227.074219 63.261719 L 244.328125 63.261719 C 245.886719 63.261719 247.152344 61.996094 247.152344 60.433594 C 247.152344 58.871094 245.886719 57.601562 244.328125 57.601562 L 212.523438 57.601562 C 208.757812 57.601562 205.394531 54.84375 205.035156 51.089844 C 204.628906 46.78125 207.996094 43.15625 212.210938 43.15625 L 214.230469 43.15625 C 215.789062 43.15625 217.054688 41.890625 217.054688 40.328125 C 217.054688 38.761719 215.789062 37.496094 214.230469 37.496094 L 160.402344 37.496094 C 158.84375 37.496094 157.578125 38.761719 157.578125 40.328125 C 157.578125 41.890625 158.84375 43.15625 160.402344 43.15625 L 162.421875 43.15625 C 166.636719 43.15625 170.003906 46.78125 169.59375 51.089844 C 169.238281 54.84375 165.875 57.601562 162.109375 57.601562 L 130.304688 57.601562 C 128.746094 57.601562 127.480469 58.871094 127.480469 60.433594 C 127.480469 61.996094 128.746094 63.261719 130.304688 63.261719 L 147.554688 63.261719 C 151.773438 63.261719 155.140625 66.886719 154.730469 71.195312 C 154.375 74.953125 151.011719 77.707031 147.246094 77.707031 L 100.207031 77.707031 C 98.648438 77.707031 97.382812 78.976562 97.382812 80.539062 C 97.382812 82.101562 98.648438 83.367188 100.207031 83.367188 L 133.03125 83.367188 C 138.765625 83.367188 141.945312 89.957031 138.441406 94.507812 C 138.320312 94.667969 138.199219 94.828125 138.078125 94.988281 C 136.769531 96.738281 134.753906 97.816406 132.570312 97.816406 L 70.113281 97.816406 C 68.550781 97.816406 67.289062 99.082031 67.289062 100.644531 C 67.289062 102.207031 68.550781 103.472656 70.113281 103.472656 L 123.765625 103.472656 C 128.082031 103.472656 131.378906 107.441406 130.472656 111.667969 C 130.417969 111.921875 130.367188 112.171875 130.316406 112.421875 C 129.691406 115.621094 126.886719 117.921875 123.632812 117.921875 L 40.015625 117.921875 C 38.457031 117.921875 37.191406 119.1875 37.191406 120.75 C 37.191406 122.3125 38.457031 123.578125 40.015625 123.578125 L 123.632812 123.578125 C 126.890625 123.578125 129.691406 125.882812 130.320312 129.085938 C 130.363281 129.3125 130.410156 129.542969 130.460938 129.769531 C 131.363281 134.015625 128.191406 138.027344 123.859375 138.027344 L 70.113281 138.027344 C 68.550781 138.027344 67.289062 139.292969 67.289062 140.855469 C 67.289062 142.417969 68.550781 143.683594 70.113281 143.683594 L 132.570312 143.683594 C 134.734375 143.683594 136.75 144.730469 138.042969 146.464844 C 138.191406 146.664062 138.335938 146.855469 138.488281 147.050781 C 141.972656 151.5625 138.597656 158.132812 132.902344 158.132812 L 100.207031 158.132812 C 98.648438 158.132812 97.382812 159.398438 97.382812 160.960938 C 97.382812 162.523438 98.648438 163.792969 100.207031 163.792969 L 147.554688 163.792969 C 151.773438 163.792969 155.140625 167.417969 154.730469 171.726562 C 154.375 175.480469 151.011719 178.238281 147.246094 178.238281 L 130.304688 178.238281 C 128.746094 178.238281 127.480469 179.503906 127.480469 181.066406 C 127.480469 182.628906 128.746094 183.898438 130.304688 183.898438 L 162.421875 183.898438 C 166.636719 183.898438 170.003906 187.519531 169.59375 191.828125 C 169.238281 195.585938 165.875 198.34375 162.109375 198.34375 L 160.402344 198.34375 C 158.84375 198.34375 157.578125 199.609375 157.578125 201.171875 C 157.578125 202.734375 158.84375 204.003906 160.402344 204.003906 L 214.230469 204.003906 C 215.789062 204.003906 217.054688 202.734375 217.054688 201.171875 C 217.054688 199.609375 215.789062 198.34375 214.230469 198.34375 L 212.523438 198.34375 C 208.757812 198.34375 205.394531 195.585938 205.035156 191.828125 C 204.628906 187.519531 207.996094 183.898438 212.210938 183.898438 L 244.328125 183.898438 C 245.886719 183.898438 247.152344 182.628906 247.152344 181.066406 C 247.152344 179.503906 245.886719 178.238281 244.328125 178.238281 L 227.386719 178.238281 C 223.621094 178.238281 220.257812 175.480469 219.898438 171.726562 C 219.492188 167.417969 222.859375 163.792969 227.074219 163.792969 L 274.425781 163.792969 C 275.984375 163.792969 277.246094 162.523438 277.246094 160.960938 C 277.246094 159.398438 275.984375 158.132812 274.425781 158.132812 L 241.730469 158.132812 C 236.035156 158.132812 232.660156 151.5625 236.144531 147.050781 C 236.292969 146.855469 236.441406 146.664062 236.589844 146.464844 C 237.882812 144.730469 239.898438 143.683594 242.0625 143.683594 L 304.519531 143.683594 C 306.082031 143.683594 307.34375 142.417969 307.34375 140.855469 C 307.34375 139.292969 306.082031 138.027344 304.519531 138.027344 L 250.769531 138.027344 C 246.441406 138.027344 243.269531 134.015625 244.171875 129.769531 C 244.21875 129.542969 244.269531 129.3125 244.3125 129.085938 " clip-rule="nonzero"/></clipPath><clipPath id="id6"><path d="M 309.597656 -49.769531 L -11.007812 52.9375 L 65.035156 291.269531 L 385.636719 188.5625 Z M 309.597656 -49.769531 " clip-rule="nonzero"/></clipPath><linearGradient x1="-0.0951125" gradientTransform="matrix(72.861692, 228.375775, -227.907575, 73.011381, 156.227479, 23.307469)" y1="0" x2="0.948466" gradientUnits="userSpaceOnUse" y2="0" xlink:type="simple" xlink:actuate="onLoad" id="id7" xlink:show="other"><stop stop-opacity="1" stop-color="rgb(21.998596%, 59.599304%, 100%)" offset="0"/><stop stop-opacity="1" stop-color="rgb(21.998596%, 59.599304%, 100%)" offset="0.0625"/><stop stop-opacity="1" stop-color="rgb(21.998596%, 59.599304%, 100%)" offset="0.09375"/><stop stop-opacity="1" stop-color="rgb(21.998596%, 59.599304%, 100%)" offset="0.101562"/><stop stop-opacity="1" stop-color="rgb(21.998596%, 59.390259%, 100%)" offset="0.105469"/><stop stop-opacity="1" stop-color="rgb(21.998596%, 59.182739%, 100%)" offset="0.109375"/><stop stop-opacity="1" stop-color="rgb(21.998596%, 58.990479%, 99.995422%)" offset="0.117187"/><stop stop-opacity="1" stop-color="rgb(21.998596%, 58.799744%, 99.797058%)" offset="0.125"/><stop stop-opacity="1" stop-color="rgb(22.192383%, 58.604431%, 99.60022%)" offset="0.132812"/><stop stop-opacity="1" stop-color="rgb(22.393799%, 58.404541%, 99.598694%)" offset="0.140625"/><stop stop-opacity="1" stop-color="rgb(22.399902%, 58.189392%, 99.598694%)" offset="0.144531"/><stop stop-opacity="1" stop-color="rgb(22.399902%, 57.978821%, 99.598694%)" offset="0.148438"/><stop stop-opacity="1" stop-color="rgb(22.399902%, 57.788086%, 99.598694%)" offset="0.15625"/><stop stop-opacity="1" stop-color="rgb(22.399902%, 57.450867%, 99.598694%)" offset="0.171875"/><stop stop-opacity="1" stop-color="rgb(22.399902%, 57.301331%, 99.406433%)" offset="0.179687"/><stop stop-opacity="1" stop-color="rgb(22.399902%, 57.112122%, 99.206543%)" offset="0.1875"/><stop stop-opacity="1" stop-color="rgb(22.549438%, 56.903076%, 99.198914%)" offset="0.195312"/><stop stop-opacity="1" stop-color="rgb(22.698975%, 56.687927%, 99.198914%)" offset="0.203125"/><stop stop-opacity="1" stop-color="rgb(22.698975%, 56.297302%, 99.198914%)" offset="0.210938"/><stop stop-opacity="1" stop-color="rgb(22.698975%, 56.100464%, 99.198914%)" offset="0.21875"/><stop stop-opacity="1" stop-color="rgb(22.698975%, 55.909729%, 99.198914%)" offset="0.226562"/><stop stop-opacity="1" stop-color="rgb(22.698975%, 55.699158%, 98.999023%)" offset="0.230469"/><stop stop-opacity="1" stop-color="rgb(22.698975%, 55.679321%, 98.799133%)" offset="0.234375"/><stop stop-opacity="1" stop-color="rgb(22.698975%, 55.488586%, 98.799133%)" offset="0.25"/><stop stop-opacity="1" stop-color="rgb(22.895813%, 55.102539%, 98.799133%)" offset="0.257812"/><stop stop-opacity="1" stop-color="rgb(23.094177%, 54.711914%, 98.799133%)" offset="0.265625"/><stop stop-opacity="1" stop-color="rgb(23.098755%, 54.495239%, 98.786926%)" offset="0.273438"/><stop stop-opacity="1" stop-color="rgb(23.098755%, 54.286194%, 98.587036%)" offset="0.28125"/><stop stop-opacity="1" stop-color="rgb(23.098755%, 54.095459%, 98.399353%)" offset="0.289062"/><stop stop-opacity="1" stop-color="rgb(23.098755%, 53.898621%, 98.399353%)" offset="0.296875"/><stop stop-opacity="1" stop-color="rgb(23.098755%, 53.50647%, 98.399353%)" offset="0.300781"/><stop stop-opacity="1" stop-color="rgb(23.098755%, 53.311157%, 98.399353%)" offset="0.304687"/><stop stop-opacity="1" stop-color="rgb(23.098755%, 53.305054%, 98.399353%)" offset="0.3125"/><stop stop-opacity="1" stop-color="rgb(23.298645%, 53.09906%, 98.399353%)" offset="0.316406"/><stop stop-opacity="1" stop-color="rgb(23.498535%, 52.89917%, 98.399353%)" offset="0.320312"/><stop stop-opacity="1" stop-color="rgb(23.498535%, 52.894592%, 98.39325%)" offset="0.328125"/><stop stop-opacity="1" stop-color="rgb(23.498535%, 52.694702%, 98.193359%)" offset="0.34375"/><stop stop-opacity="1" stop-color="rgb(23.498535%, 52.355957%, 97.999573%)" offset="0.351562"/><stop stop-opacity="1" stop-color="rgb(23.498535%, 52.005005%, 97.999573%)" offset="0.355469"/><stop stop-opacity="1" stop-color="rgb(23.498535%, 51.799011%, 97.999573%)" offset="0.359375"/><stop stop-opacity="1" stop-color="rgb(23.498535%, 51.791382%, 97.999573%)" offset="0.367188"/><stop stop-opacity="1" stop-color="rgb(23.501587%, 51.591492%, 97.999573%)" offset="0.375"/><stop stop-opacity="1" stop-color="rgb(23.699951%, 51.399231%, 97.999573%)" offset="0.382812"/><stop stop-opacity="1" stop-color="rgb(23.89679%, 51.205444%, 97.805786%)" offset="0.390625"/><stop stop-opacity="1" stop-color="rgb(23.899841%, 50.991821%, 97.605896%)" offset="0.398437"/><stop stop-opacity="1" stop-color="rgb(23.899841%, 50.776672%, 97.599792%)" offset="0.40625"/><stop stop-opacity="1" stop-color="rgb(23.899841%, 50.390625%, 97.599792%)" offset="0.421875"/><stop stop-opacity="1" stop-color="rgb(23.899841%, 50.003052%, 97.599792%)" offset="0.425781"/><stop stop-opacity="1" stop-color="rgb(23.899841%, 49.807739%, 97.599792%)" offset="0.429688"/><stop stop-opacity="1" stop-color="rgb(23.899841%, 49.803162%, 97.599792%)" offset="0.4375"/><stop stop-opacity="1" stop-color="rgb(23.910522%, 49.586487%, 97.44873%)" offset="0.441406"/><stop stop-opacity="1" stop-color="rgb(23.921204%, 49.375916%, 97.299194%)" offset="0.445312"/><stop stop-opacity="1" stop-color="rgb(24.110413%, 49.186707%, 97.299194%)" offset="0.453125"/><stop stop-opacity="1" stop-color="rgb(24.299622%, 48.995972%, 97.299194%)" offset="0.460938"/><stop stop-opacity="1" stop-color="rgb(24.299622%, 48.799133%, 97.299194%)" offset="0.46875"/><stop stop-opacity="1" stop-color="rgb(24.299622%, 48.600769%, 97.299194%)" offset="0.476562"/><stop stop-opacity="1" stop-color="rgb(24.299622%, 48.399353%, 97.299194%)" offset="0.480469"/><stop stop-opacity="1" stop-color="rgb(24.299622%, 48.199463%, 97.299194%)" offset="0.484375"/><stop stop-opacity="1" stop-color="rgb(24.299622%, 48.190308%, 97.290039%)" offset="0.492187"/><stop stop-opacity="1" stop-color="rgb(24.299622%, 47.987366%, 97.090149%)" offset="0.5"/><stop stop-opacity="1" stop-color="rgb(24.493408%, 47.645569%, 96.899414%)" offset="0.515625"/><stop stop-opacity="1" stop-color="rgb(24.693298%, 47.299194%, 96.899414%)" offset="0.519531"/><stop stop-opacity="1" stop-color="rgb(24.699402%, 47.099304%, 96.899414%)" offset="0.523437"/><stop stop-opacity="1" stop-color="rgb(24.699402%, 47.088623%, 96.899414%)" offset="0.53125"/><stop stop-opacity="1" stop-color="rgb(24.699402%, 46.887207%, 96.897888%)" offset="0.546875"/><stop stop-opacity="1" stop-color="rgb(24.699402%, 46.499634%, 96.699524%)" offset="0.550781"/><stop stop-opacity="1" stop-color="rgb(24.699402%, 46.304321%, 96.504211%)" offset="0.554687"/><stop stop-opacity="1" stop-color="rgb(24.699402%, 46.109009%, 96.50116%)" offset="0.5625"/><stop stop-opacity="1" stop-color="rgb(24.711609%, 45.892334%, 96.499634%)" offset="0.570312"/><stop stop-opacity="1" stop-color="rgb(24.911499%, 45.684814%, 96.499634%)" offset="0.578125"/><stop stop-opacity="1" stop-color="rgb(25.099182%, 45.49408%, 96.499634%)" offset="0.585937"/><stop stop-opacity="1" stop-color="rgb(25.099182%, 45.295715%, 96.499634%)" offset="0.59375"/><stop stop-opacity="1" stop-color="rgb(25.099182%, 44.90509%, 96.304321%)" offset="0.601562"/><stop stop-opacity="1" stop-color="rgb(25.099182%, 44.688416%, 96.104431%)" offset="0.609375"/><stop stop-opacity="1" stop-color="rgb(25.099182%, 44.477844%, 96.099854%)" offset="0.625"/><stop stop-opacity="1" stop-color="rgb(25.100708%, 44.093323%, 96.099854%)" offset="0.632812"/><stop stop-opacity="1" stop-color="rgb(25.297546%, 43.899536%, 96.099854%)" offset="0.640625"/><stop stop-opacity="1" stop-color="rgb(25.495911%, 43.681335%, 96.081543%)" offset="0.644531"/><stop stop-opacity="1" stop-color="rgb(25.498962%, 43.464661%, 96.064758%)" offset="0.648437"/><stop stop-opacity="1" stop-color="rgb(25.498962%, 43.281555%, 95.881653%)" offset="0.65625"/><stop stop-opacity="1" stop-color="rgb(25.498962%, 43.09082%, 95.698547%)" offset="0.664062"/><stop stop-opacity="1" stop-color="rgb(25.498962%, 42.89093%, 95.698547%)" offset="0.671875"/><stop stop-opacity="1" stop-color="rgb(25.498962%, 42.552185%, 95.698547%)" offset="0.6875"/><stop stop-opacity="1" stop-color="rgb(25.514221%, 42.38739%, 95.698547%)" offset="0.695312"/><stop stop-opacity="1" stop-color="rgb(25.714111%, 42.173767%, 95.687866%)" offset="0.703125"/><stop stop-opacity="1" stop-color="rgb(25.898743%, 41.78772%, 95.487976%)" offset="0.71875"/><stop stop-opacity="1" stop-color="rgb(25.898743%, 41.401672%, 95.298767%)" offset="0.726562"/><stop stop-opacity="1" stop-color="rgb(25.898743%, 41.184998%, 95.298767%)" offset="0.734375"/><stop stop-opacity="1" stop-color="rgb(25.898743%, 40.969849%, 95.298767%)" offset="0.742187"/><stop stop-opacity="1" stop-color="rgb(25.898743%, 40.586853%, 95.298767%)" offset="0.75"/><stop stop-opacity="1" stop-color="rgb(25.898743%, 40.396118%, 95.295715%)" offset="0.757812"/><stop stop-opacity="1" stop-color="rgb(25.898743%, 40.197754%, 95.097351%)" offset="0.765625"/><stop stop-opacity="1" stop-color="rgb(26.098633%, 39.981079%, 94.900513%)" offset="0.769531"/><stop stop-opacity="1" stop-color="rgb(26.298523%, 39.961243%, 94.898987%)" offset="0.773437"/><stop stop-opacity="1" stop-color="rgb(26.298523%, 39.779663%, 94.898987%)" offset="0.78125"/><stop stop-opacity="1" stop-color="rgb(26.298523%, 39.588928%, 94.898987%)" offset="0.789062"/><stop stop-opacity="1" stop-color="rgb(26.298523%, 39.38446%, 94.898987%)" offset="0.796875"/><stop stop-opacity="1" stop-color="rgb(26.298523%, 38.993835%, 94.898987%)" offset="0.8125"/><stop stop-opacity="1" stop-color="rgb(26.298523%, 38.598633%, 94.699097%)" offset="0.816406"/><stop stop-opacity="1" stop-color="rgb(26.298523%, 38.398743%, 94.499207%)" offset="0.820312"/><stop stop-opacity="1" stop-color="rgb(26.31073%, 38.386536%, 94.499207%)" offset="0.828125"/><stop stop-opacity="1" stop-color="rgb(26.51062%, 38.18512%, 94.499207%)" offset="0.84375"/><stop stop-opacity="1" stop-color="rgb(26.699829%, 37.797546%, 94.499207%)" offset="0.847656"/><stop stop-opacity="1" stop-color="rgb(26.699829%, 37.602234%, 94.499207%)" offset="0.851562"/><stop stop-opacity="1" stop-color="rgb(26.699829%, 37.449646%, 94.480896%)" offset="0.859375"/><stop stop-opacity="1" stop-color="rgb(26.699829%, 37.284851%, 94.281006%)" offset="0.867187"/><stop stop-opacity="1" stop-color="rgb(26.699829%, 37.084961%, 94.099426%)" offset="0.875"/><stop stop-opacity="1" stop-color="rgb(26.699829%, 36.894226%, 94.099426%)" offset="0.882812"/><stop stop-opacity="1" stop-color="rgb(26.699829%, 36.694336%, 94.099426%)" offset="0.890625"/><stop stop-opacity="1" stop-color="rgb(26.899719%, 36.299133%, 94.099426%)" offset="0.894531"/><stop stop-opacity="1" stop-color="rgb(27.099609%, 36.099243%, 94.099426%)" offset="0.898437"/><stop stop-opacity="1" stop-color="rgb(27.099609%, 36.082458%, 94.099426%)" offset="0.90625"/><stop stop-opacity="1" stop-color="rgb(27.099609%, 35.882568%, 94.087219%)" offset="0.914062"/><stop stop-opacity="1" stop-color="rgb(27.099609%, 35.691833%, 93.887329%)" offset="0.921875"/><stop stop-opacity="1" stop-color="rgb(27.099609%, 35.491943%, 93.699646%)" offset="0.9375"/><stop stop-opacity="1" stop-color="rgb(27.099609%, 35.081482%, 93.699646%)" offset="0.941406"/><stop stop-opacity="1" stop-color="rgb(27.099609%, 34.863281%, 93.699646%)" offset="0.945312"/><stop stop-opacity="1" stop-color="rgb(27.113342%, 34.680176%, 93.699646%)" offset="0.953125"/><stop stop-opacity="1" stop-color="rgb(27.313232%, 34.489441%, 93.699646%)" offset="0.960937"/><stop stop-opacity="1" stop-color="rgb(27.49939%, 34.289551%, 93.695068%)" offset="0.96875"/><stop stop-opacity="1" stop-color="rgb(27.49939%, 34.098816%, 93.495178%)" offset="0.976562"/><stop stop-opacity="1" stop-color="rgb(27.49939%, 33.898926%, 93.299866%)" offset="0.980469"/><stop stop-opacity="1" stop-color="rgb(27.49939%, 33.699036%, 93.299866%)" offset="0.984375"/><stop stop-opacity="1" stop-color="rgb(27.49939%, 33.682251%, 93.299866%)" offset="0.992187"/><stop stop-opacity="1" stop-color="rgb(27.49939%, 33.482361%, 93.299866%)" offset="1"/></linearGradient></defs><path fill="rgb(0%, 0%, 0%)" d="M 204.824219 112.929688 C 203.773438 116.460938 200.546875 119.050781 196.683594 119.050781 C 191.972656 119.050781 188.152344 115.226562 188.152344 110.503906 C 188.152344 106.90625 190.375 103.839844 193.511719 102.578125 C 191.570312 101.90625 189.488281 101.527344 187.316406 101.527344 C 176.722656 101.527344 168.132812 110.132812 168.132812 120.75 C 168.132812 131.367188 176.722656 139.972656 187.316406 139.972656 C 197.910156 139.972656 206.5 131.367188 206.5 120.75 C 206.5 117.960938 205.894531 115.316406 204.824219 112.929688 " fill-opacity="1" fill-rule="nonzero"/><g clip-path="url(#id3)"><g clip-path="url(#id4)"><g clip-path="url(#id5)"><g clip-path="url(#id6)"><path fill="url(#id7)" d="M 309.597656 -49.765625 L -11.003906 52.941406 L 65.03125 291.265625 L 385.636719 188.558594 Z M 309.597656 -49.765625 " fill-rule="nonzero"/></g></g></g></g><g fill="rgb(100%, 100%, 100%)" fill-opacity="1"><g transform="translate(56.920156, 264.514963)"><g><path d="M 11.5 0 C 11.71875 -0.664062 11.828125 -2.210938 11.828125 -4.640625 L 11.828125 -11.71875 C 8.890625 -18.195312 7.007812 -22.238281 6.1875 -23.84375 C 5.375 -25.445312 4.6875 -26.710938 4.125 -27.640625 C 2.363281 -30.640625 1.296875 -32.359375 0.921875 -32.796875 C 0.554688 -33.234375 0.191406 -33.597656 -0.171875 -33.890625 L 8.609375 -33.890625 C 8.796875 -33.546875 9.050781 -33.046875 9.375 -32.390625 L 15.546875 -19.359375 C 15.835938 -20.078125 16.175781 -20.878906 16.5625 -21.765625 C 20.269531 -29.734375 22.144531 -33.773438 22.1875 -33.890625 L 30.609375 -33.890625 C 29.734375 -33.191406 28.671875 -31.734375 27.421875 -29.515625 C 27.023438 -28.847656 26.632812 -28.085938 26.25 -27.234375 L 20.484375 -15.234375 C 19.835938 -13.796875 19.285156 -12.5 18.828125 -11.34375 L 18.828125 -4.03125 C 18.828125 -2.332031 18.929688 -0.988281 19.140625 0 Z M 11.5 0 "/></g></g></g><g fill="rgb(100%, 100%, 100%)" fill-opacity="1"><g transform="translate(93.842419, 264.514963)"><g><path d="M 7.15625 -4.03125 C 5.613281 -5.507812 4.394531 -7.28125 3.5 -9.34375 C 2.613281 -11.414062 2.171875 -13.6875 2.171875 -16.15625 C 2.171875 -18.632812 2.582031 -20.976562 3.40625 -23.1875 C 4.238281 -25.394531 5.425781 -27.335938 6.96875 -29.015625 C 8.519531 -30.703125 10.390625 -32.039062 12.578125 -33.03125 C 14.773438 -34.03125 17.234375 -34.53125 19.953125 -34.53125 C 24.640625 -34.53125 28.585938 -33.050781 31.796875 -30.09375 C 35.234375 -26.9375 36.953125 -22.671875 36.953125 -17.296875 C 36.953125 -12.097656 35.1875 -7.773438 31.65625 -4.328125 C 29.476562 -2.203125 26.882812 -0.742188 23.875 0.046875 C 22.394531 0.441406 20.664062 0.640625 18.6875 0.640625 C 16.707031 0.640625 14.675781 0.234375 12.59375 -0.578125 C 10.519531 -1.398438 8.707031 -2.550781 7.15625 -4.03125 Z M 9.25 -16.515625 C 9.25 -14.929688 9.507812 -13.476562 10.03125 -12.15625 C 10.5625 -10.832031 11.296875 -9.691406 12.234375 -8.734375 C 14.222656 -6.734375 16.78125 -5.734375 19.90625 -5.734375 C 22.875 -5.734375 25.257812 -6.691406 27.0625 -8.609375 C 28.894531 -10.597656 29.8125 -13.304688 29.8125 -16.734375 C 29.8125 -19.960938 28.9375 -22.65625 27.1875 -24.8125 C 25.300781 -27.125 22.71875 -28.28125 19.4375 -28.28125 C 16.257812 -28.28125 13.738281 -27.109375 11.875 -24.765625 C 10.125 -22.578125 9.25 -19.828125 9.25 -16.515625 Z M 9.25 -16.515625 "/></g></g></g><g fill="rgb(100%, 100%, 100%)" fill-opacity="1"><g transform="translate(139.478933, 264.514963)"><g><path d="M 23.703125 -34.015625 C 24.753906 -33.929688 25.628906 -33.890625 26.328125 -33.890625 L 28.4375 -33.890625 C 29.15625 -33.890625 29.90625 -33.957031 30.6875 -34.09375 L 30.6875 -13.015625 C 30.6875 -8.835938 29.421875 -5.484375 26.890625 -2.953125 C 24.492188 -0.554688 21.484375 0.640625 17.859375 0.640625 C 13.898438 0.640625 10.695312 -0.390625 8.25 -2.453125 C 5.519531 -4.753906 4.15625 -8.082031 4.15625 -12.4375 L 4.15625 -34.015625 C 5.5625 -33.929688 6.890625 -33.890625 8.140625 -33.890625 C 9.390625 -33.890625 10.421875 -33.957031 11.234375 -34.09375 L 11.234375 -12.109375 C 11.234375 -9.960938 11.890625 -8.296875 13.203125 -7.109375 C 14.421875 -6.023438 15.945312 -5.484375 17.78125 -5.484375 C 20.5 -5.484375 22.3125 -6.875 23.21875 -9.65625 C 23.539062 -10.65625 23.703125 -11.894531 23.703125 -13.375 Z M 23.703125 -34.015625 "/></g></g></g><g fill="rgb(100%, 100%, 100%)" fill-opacity="1"><g transform="translate(180.860234, 264.514963)"><g><path d="M 16.609375 0.15625 C 15.796875 0.0507812 13.695312 0 10.3125 0 L 9.5 0 L 9.5 -28.1875 L 4.453125 -28.1875 C 2.960938 -28.1875 2.082031 -28.109375 1.8125 -27.953125 C 1.539062 -27.796875 1.328125 -27.660156 1.171875 -27.546875 L 1.09375 -27.578125 L 1.09375 -34.09375 L 1.171875 -34.171875 C 1.734375 -33.984375 3.242188 -33.890625 5.703125 -33.890625 L 21.6875 -33.890625 C 23.175781 -33.890625 24.054688 -33.960938 24.328125 -34.109375 C 24.609375 -34.265625 24.820312 -34.40625 24.96875 -34.53125 L 25.046875 -34.5 L 25.046875 -27.984375 L 24.96875 -27.90625 C 24.40625 -28.09375 22.894531 -28.1875 20.4375 -28.1875 L 16.609375 -28.1875 Z M 16.609375 0.15625 "/></g></g></g><g fill="rgb(100%, 100%, 100%)" fill-opacity="1"><g transform="translate(213.527289, 264.514963)"><g><path d="M 23.703125 -34.015625 C 24.753906 -33.929688 25.628906 -33.890625 26.328125 -33.890625 L 28.4375 -33.890625 C 29.15625 -33.890625 29.90625 -33.957031 30.6875 -34.09375 L 30.6875 -13.015625 C 30.6875 -8.835938 29.421875 -5.484375 26.890625 -2.953125 C 24.492188 -0.554688 21.484375 0.640625 17.859375 0.640625 C 13.898438 0.640625 10.695312 -0.390625 8.25 -2.453125 C 5.519531 -4.753906 4.15625 -8.082031 4.15625 -12.4375 L 4.15625 -34.015625 C 5.5625 -33.929688 6.890625 -33.890625 8.140625 -33.890625 C 9.390625 -33.890625 10.421875 -33.957031 11.234375 -34.09375 L 11.234375 -12.109375 C 11.234375 -9.960938 11.890625 -8.296875 13.203125 -7.109375 C 14.421875 -6.023438 15.945312 -5.484375 17.78125 -5.484375 C 20.5 -5.484375 22.3125 -6.875 23.21875 -9.65625 C 23.539062 -10.65625 23.703125 -11.894531 23.703125 -13.375 Z M 23.703125 -34.015625 "/></g></g></g><g fill="rgb(100%, 100%, 100%)" fill-opacity="1"><g transform="translate(254.908585, 264.514963)"><g><path d="M 25.796875 -2.484375 C 24.546875 -1.492188 22.925781 -0.722656 20.9375 -0.171875 C 18.957031 0.367188 16.519531 0.640625 13.625 0.640625 C 10.726562 0.640625 7.648438 0.375 4.390625 -0.15625 L 4.390625 -33.734375 C 7.679688 -34.265625 10.535156 -34.53125 12.953125 -34.53125 C 15.378906 -34.53125 17.367188 -34.300781 18.921875 -33.84375 C 20.472656 -33.382812 21.742188 -32.765625 22.734375 -31.984375 C 24.671875 -30.472656 25.640625 -28.515625 25.640625 -26.109375 C 25.640625 -23.703125 24.765625 -21.707031 23.015625 -20.125 C 25.085938 -19.476562 26.691406 -18.257812 27.828125 -16.46875 C 28.859375 -14.851562 29.375 -13.0625 29.375 -11.09375 C 29.375 -9.132812 29.085938 -7.457031 28.515625 -6.0625 C 27.953125 -4.664062 27.046875 -3.472656 25.796875 -2.484375 Z M 11.140625 -21.078125 C 11.847656 -20.953125 12.738281 -20.890625 13.8125 -20.890625 C 14.882812 -20.890625 15.765625 -21.03125 16.453125 -21.3125 C 17.140625 -21.59375 17.671875 -21.945312 18.046875 -22.375 C 18.648438 -23.070312 18.953125 -24.039062 18.953125 -25.28125 C 18.953125 -27.875 17.425781 -29.171875 14.375 -29.171875 C 13.082031 -29.171875 12.003906 -29.125 11.140625 -29.03125 Z M 14.90625 -15.625 C 13.476562 -15.625 12.222656 -15.53125 11.140625 -15.34375 L 11.140625 -5.328125 C 12.328125 -5.015625 13.570312 -4.859375 14.875 -4.859375 C 16.1875 -4.859375 17.335938 -5.015625 18.328125 -5.328125 C 19.328125 -5.648438 20.164062 -6.082031 20.84375 -6.625 C 22.21875 -7.75 22.90625 -9.175781 22.90625 -10.90625 C 22.90625 -14.050781 20.238281 -15.625 14.90625 -15.625 Z M 14.90625 -15.625 "/></g></g></g><g fill="rgb(100%, 100%, 100%)" fill-opacity="1"><g transform="translate(291.93276, 264.514963)"><g><path d="M 21.4375 -6.109375 C 22.488281 -6.109375 23.21875 -6.210938 23.625 -6.421875 L 23.71875 -6.390625 L 23.46875 0 L 4.390625 0 L 4.390625 -34.0625 C 4.847656 -34.03125 5.351562 -34.007812 5.90625 -34 L 7.703125 -33.9375 C 8.890625 -33.90625 10.175781 -33.890625 11.5625 -33.890625 C 15.457031 -33.890625 19.304688 -33.957031 23.109375 -34.09375 C 22.921875 -32.601562 22.828125 -30.609375 22.828125 -28.109375 C 22.828125 -27.835938 22.847656 -27.632812 22.890625 -27.5 L 22.828125 -27.421875 C 21.941406 -27.671875 20.6875 -27.796875 19.0625 -27.796875 L 11.03125 -27.796875 L 11.03125 -21.296875 L 17.078125 -21.296875 C 18.941406 -21.296875 20.0625 -21.347656 20.4375 -21.453125 L 20.515625 -15.15625 C 19.703125 -15.25 18.648438 -15.296875 17.359375 -15.296875 L 11.03125 -15.296875 L 11.03125 -6.109375 Z M 21.4375 -6.109375 "/></g></g></g><g fill="rgb(100%, 100%, 100%)" fill-opacity="1"><g transform="translate(25.814804, 314.794609)"><g><path d="M 19.109375 -24.625 L 18.734375 -18.859375 L 18.59375 -18.8125 C 17.632812 -20.257812 15.988281 -21.203125 13.65625 -21.640625 C 12.925781 -21.785156 12.222656 -21.859375 11.546875 -21.859375 C 10.878906 -21.859375 10.304688 -21.796875 9.828125 -21.671875 C 9.347656 -21.554688 8.941406 -21.390625 8.609375 -21.171875 C 7.890625 -20.703125 7.53125 -20.085938 7.53125 -19.328125 C 7.53125 -18.328125 7.84375 -17.582031 8.46875 -17.09375 C 9.25 -16.488281 10.546875 -16.066406 12.359375 -15.828125 C 14.179688 -15.585938 15.640625 -15.253906 16.734375 -14.828125 C 17.835938 -14.410156 18.738281 -13.882812 19.4375 -13.25 C 20.769531 -12.050781 21.4375 -10.351562 21.4375 -8.15625 C 21.4375 -5.28125 20.351562 -3.066406 18.1875 -1.515625 C 16.332031 -0.179688 13.992188 0.484375 11.171875 0.484375 C 8.898438 0.484375 6.648438 0.0546875 4.421875 -0.796875 C 3.691406 -1.085938 3.054688 -1.421875 2.515625 -1.796875 L 2.71875 -8.34375 L 2.796875 -8.40625 C 4.421875 -5.613281 7.082031 -4.21875 10.78125 -4.21875 C 13.40625 -4.21875 15.144531 -4.847656 16 -6.109375 C 16.28125 -6.546875 16.421875 -7.023438 16.421875 -7.546875 C 16.421875 -8.078125 16.335938 -8.515625 16.171875 -8.859375 C 16.003906 -9.210938 15.722656 -9.515625 15.328125 -9.765625 C 14.566406 -10.253906 13.289062 -10.582031 11.5 -10.75 C 9.707031 -10.925781 8.242188 -11.25 7.109375 -11.71875 C 5.972656 -12.1875 5.066406 -12.769531 4.390625 -13.46875 C 3.160156 -14.71875 2.546875 -16.46875 2.546875 -18.71875 C 2.546875 -21.039062 3.363281 -22.921875 5 -24.359375 C 6.65625 -25.828125 8.890625 -26.5625 11.703125 -26.5625 C 14.523438 -26.5625 16.992188 -25.914062 19.109375 -24.625 Z M 19.109375 -24.625 "/></g></g></g><g fill="rgb(100%, 100%, 100%)" fill-opacity="1"><g transform="translate(51.04209, 314.794609)"><g><path d="M 3 -26.203125 C 4.8125 -26.441406 6.671875 -26.5625 8.578125 -26.5625 C 12.140625 -26.5625 14.84375 -25.726562 16.6875 -24.0625 C 18.539062 -22.394531 19.46875 -19.898438 19.46875 -16.578125 C 19.46875 -13.609375 18.453125 -11.265625 16.421875 -9.546875 C 14.523438 -7.921875 12.085938 -7.109375 9.109375 -7.109375 C 8.773438 -7.109375 8.40625 -7.128906 8 -7.171875 L 8 0 L 3 0 Z M 9.171875 -21.828125 C 8.773438 -21.828125 8.382812 -21.816406 8 -21.796875 L 8 -11.484375 C 8.414062 -11.429688 8.921875 -11.40625 9.515625 -11.40625 C 10.117188 -11.40625 10.75 -11.53125 11.40625 -11.78125 C 12.0625 -12.039062 12.609375 -12.398438 13.046875 -12.859375 C 13.972656 -13.804688 14.4375 -15.0625 14.4375 -16.625 C 14.4375 -20.09375 12.679688 -21.828125 9.171875 -21.828125 Z M 9.171875 -21.828125 "/></g></g></g><g fill="rgb(100%, 100%, 100%)" fill-opacity="1"><g transform="translate(72.996502, 314.794609)"><g><path d="M 5.265625 0.15625 C 4.148438 0.0507812 2.835938 0 1.328125 0 L -0.21875 0 L 8.3125 -23.890625 C 8.6875 -24.960938 8.875 -25.585938 8.875 -25.765625 C 8.875 -25.941406 8.867188 -26.050781 8.859375 -26.09375 L 8.875 -26.125 C 9.726562 -26.082031 10.628906 -26.0625 11.578125 -26.0625 C 12.367188 -26.0625 13.3125 -26.078125 14.40625 -26.109375 L 14.421875 -26.0625 C 14.398438 -26.007812 14.390625 -25.941406 14.390625 -25.859375 C 14.390625 -25.609375 14.582031 -24.945312 14.96875 -23.875 L 23.671875 0.0625 C 23.410156 0.0507812 23.101562 0.046875 22.75 0.046875 C 22.75 0.046875 22.410156 0.03125 21.734375 0 C 21.410156 0 21.117188 0 20.859375 0 L 17.8125 0 L 15.96875 -5.640625 L 7.109375 -5.640625 Z M 14.4375 -10.34375 L 11.484375 -19.46875 L 8.609375 -10.34375 Z M 14.4375 -10.34375 "/></g></g></g><g fill="rgb(100%, 100%, 100%)" fill-opacity="1"><g transform="translate(98.30218, 314.794609)"><g><path d="M 8.65625 0.125 C 8.03125 0.0390625 6.820312 0 5.03125 0 L 3.46875 0 L 3.46875 -26.140625 C 4.300781 -26.085938 5.21875 -26.0625 6.21875 -26.0625 C 7.226562 -26.0625 7.945312 -26.113281 8.375 -26.21875 L 14.953125 -15.03125 L 21.28125 -26.21875 C 21.695312 -26.113281 22.492188 -26.0625 23.671875 -26.0625 C 24.847656 -26.0625 25.851562 -26.085938 26.6875 -26.140625 L 26.6875 0 L 25.125 0 C 23.332031 0 22.125 0.0390625 21.5 0.125 L 21.5 -17.4375 L 15.09375 -5.984375 L 8.65625 -16.515625 Z M 8.65625 0.125 "/></g></g></g><g fill="rgb(100%, 100%, 100%)" fill-opacity="1"><g transform="translate(130.310376, 314.794609)"><g><path d="M 8.65625 0.125 C 8.03125 0.0390625 6.820312 0 5.03125 0 L 3.46875 0 L 3.46875 -26.140625 C 4.300781 -26.085938 5.21875 -26.0625 6.21875 -26.0625 C 7.226562 -26.0625 7.945312 -26.113281 8.375 -26.21875 L 14.953125 -15.03125 L 21.28125 -26.21875 C 21.695312 -26.113281 22.492188 -26.0625 23.671875 -26.0625 C 24.847656 -26.0625 25.851562 -26.085938 26.6875 -26.140625 L 26.6875 0 L 25.125 0 C 23.332031 0 22.125 0.0390625 21.5 0.125 L 21.5 -17.4375 L 15.09375 -5.984375 L 8.65625 -16.515625 Z M 8.65625 0.125 "/></g></g></g><g fill="rgb(100%, 100%, 100%)" fill-opacity="1"><g transform="translate(162.318571, 314.794609)"><g><path d="M 16.484375 -4.703125 C 17.296875 -4.703125 17.859375 -4.78125 18.171875 -4.9375 L 18.25 -4.921875 L 18.046875 0 L 3.375 0 L 3.375 -26.203125 C 3.726562 -26.179688 4.117188 -26.160156 4.546875 -26.140625 L 5.921875 -26.109375 C 6.835938 -26.078125 7.828125 -26.0625 8.890625 -26.0625 C 11.890625 -26.0625 14.851562 -26.113281 17.78125 -26.21875 C 17.632812 -25.070312 17.5625 -23.539062 17.5625 -21.625 C 17.5625 -21.414062 17.570312 -21.253906 17.59375 -21.140625 L 17.5625 -21.09375 C 16.882812 -21.289062 15.914062 -21.390625 14.65625 -21.390625 L 8.484375 -21.390625 L 8.484375 -16.390625 L 13.125 -16.390625 C 14.5625 -16.390625 15.425781 -16.425781 15.71875 -16.5 L 15.78125 -11.65625 C 15.15625 -11.726562 14.34375 -11.765625 13.34375 -11.765625 L 8.484375 -11.765625 L 8.484375 -4.703125 Z M 16.484375 -4.703125 "/></g></g></g><g fill="rgb(100%, 100%, 100%)" fill-opacity="1"><g transform="translate(184.272984, 314.794609)"><g><path d="M 11.796875 -10.140625 C 11.410156 -10.109375 10.992188 -10.09375 10.546875 -10.09375 C 10.097656 -10.09375 9.4375 -10.125 8.5625 -10.1875 L 8.5625 0 L 3.375 0 L 3.375 -26.203125 C 5.195312 -26.441406 7.441406 -26.5625 10.109375 -26.5625 C 13.742188 -26.5625 16.453125 -25.890625 18.234375 -24.546875 C 20.015625 -23.210938 20.90625 -21.144531 20.90625 -18.34375 C 20.90625 -16.175781 20.09375 -14.320312 18.46875 -12.78125 C 17.925781 -12.28125 17.3125 -11.847656 16.625 -11.484375 L 20.625 -3.0625 C 21.40625 -1.320312 22.003906 -0.285156 22.421875 0.046875 L 22.328125 0.140625 C 21.054688 -0.0664062 19.0625 -0.0625 16.34375 0.15625 Z M 10.484375 -21.9375 C 9.816406 -21.9375 9.175781 -21.898438 8.5625 -21.828125 L 8.5625 -14.34375 C 9.207031 -14.25 9.957031 -14.203125 10.8125 -14.203125 C 11.675781 -14.203125 12.398438 -14.273438 12.984375 -14.421875 C 13.578125 -14.578125 14.09375 -14.8125 14.53125 -15.125 C 15.457031 -15.820312 15.921875 -16.863281 15.921875 -18.25 C 15.921875 -19.632812 15.4375 -20.609375 14.46875 -21.171875 C 13.5625 -21.679688 12.234375 -21.9375 10.484375 -21.9375 Z M 10.484375 -21.9375 "/></g></g></g><g fill="rgb(100%, 100%, 100%)" fill-opacity="1"><g transform="translate(209.50027, 314.794609)"><g/></g></g><g fill="rgb(100%, 100%, 100%)" fill-opacity="1"><g transform="translate(224.654169, 314.794609)"><g><path d="M 3 -26.203125 C 4.8125 -26.441406 6.671875 -26.5625 8.578125 -26.5625 C 12.140625 -26.5625 14.84375 -25.726562 16.6875 -24.0625 C 18.539062 -22.394531 19.46875 -19.898438 19.46875 -16.578125 C 19.46875 -13.609375 18.453125 -11.265625 16.421875 -9.546875 C 14.523438 -7.921875 12.085938 -7.109375 9.109375 -7.109375 C 8.773438 -7.109375 8.40625 -7.128906 8 -7.171875 L 8 0 L 3 0 Z M 9.171875 -21.828125 C 8.773438 -21.828125 8.382812 -21.816406 8 -21.796875 L 8 -11.484375 C 8.414062 -11.429688 8.921875 -11.40625 9.515625 -11.40625 C 10.117188 -11.40625 10.75 -11.53125 11.40625 -11.78125 C 12.0625 -12.039062 12.609375 -12.398438 13.046875 -12.859375 C 13.972656 -13.804688 14.4375 -15.0625 14.4375 -16.625 C 14.4375 -20.09375 12.679688 -21.828125 9.171875 -21.828125 Z M 9.171875 -21.828125 "/></g></g></g><g fill="rgb(100%, 100%, 100%)" fill-opacity="1"><g transform="translate(246.608581, 314.794609)"><g><path d="M 18.234375 -26.171875 C 19.035156 -26.097656 19.707031 -26.0625 20.25 -26.0625 L 21.875 -26.0625 C 22.425781 -26.0625 23 -26.113281 23.59375 -26.21875 L 23.59375 -10.015625 C 23.59375 -6.796875 22.617188 -4.21875 20.671875 -2.28125 C 18.835938 -0.4375 16.523438 0.484375 13.734375 0.484375 C 10.691406 0.484375 8.226562 -0.300781 6.34375 -1.875 C 4.238281 -3.65625 3.1875 -6.21875 3.1875 -9.5625 L 3.1875 -26.171875 C 4.28125 -26.097656 5.304688 -26.0625 6.265625 -26.0625 C 7.222656 -26.0625 8.015625 -26.113281 8.640625 -26.21875 L 8.640625 -9.3125 C 8.640625 -7.664062 9.144531 -6.382812 10.15625 -5.46875 C 11.09375 -4.632812 12.269531 -4.21875 13.6875 -4.21875 C 15.769531 -4.21875 17.160156 -5.285156 17.859375 -7.421875 C 18.109375 -8.191406 18.234375 -9.148438 18.234375 -10.296875 Z M 18.234375 -26.171875 "/></g></g></g><g fill="rgb(100%, 100%, 100%)" fill-opacity="1"><g transform="translate(275.265501, 314.794609)"><g><path d="M 11.796875 -10.140625 C 11.410156 -10.109375 10.992188 -10.09375 10.546875 -10.09375 C 10.097656 -10.09375 9.4375 -10.125 8.5625 -10.1875 L 8.5625 0 L 3.375 0 L 3.375 -26.203125 C 5.195312 -26.441406 7.441406 -26.5625 10.109375 -26.5625 C 13.742188 -26.5625 16.453125 -25.890625 18.234375 -24.546875 C 20.015625 -23.210938 20.90625 -21.144531 20.90625 -18.34375 C 20.90625 -16.175781 20.09375 -14.320312 18.46875 -12.78125 C 17.925781 -12.28125 17.3125 -11.847656 16.625 -11.484375 L 20.625 -3.0625 C 21.40625 -1.320312 22.003906 -0.285156 22.421875 0.046875 L 22.328125 0.140625 C 21.054688 -0.0664062 19.0625 -0.0625 16.34375 0.15625 Z M 10.484375 -21.9375 C 9.816406 -21.9375 9.175781 -21.898438 8.5625 -21.828125 L 8.5625 -14.34375 C 9.207031 -14.25 9.957031 -14.203125 10.8125 -14.203125 C 11.675781 -14.203125 12.398438 -14.273438 12.984375 -14.421875 C 13.578125 -14.578125 14.09375 -14.8125 14.53125 -15.125 C 15.457031 -15.820312 15.921875 -16.863281 15.921875 -18.25 C 15.921875 -19.632812 15.4375 -20.609375 14.46875 -21.171875 C 13.5625 -21.679688 12.234375 -21.9375 10.484375 -21.9375 Z M 10.484375 -21.9375 "/></g></g></g><g fill="rgb(100%, 100%, 100%)" fill-opacity="1"><g transform="translate(300.492787, 314.794609)"><g><path d="M 24.859375 -15.71875 C 24.609375 -15.269531 24.484375 -14.207031 24.484375 -12.53125 L 24.484375 -6.453125 C 24.484375 -4.609375 23.53125 -3.003906 21.625 -1.640625 C 19.644531 -0.222656 17.222656 0.484375 14.359375 0.484375 C 10.390625 0.484375 7.222656 -0.757812 4.859375 -3.25 C 2.578125 -5.632812 1.4375 -8.664062 1.4375 -12.34375 C 1.4375 -16.269531 2.597656 -19.535156 4.921875 -22.140625 C 7.515625 -25.085938 11.09375 -26.5625 15.65625 -26.5625 C 18.707031 -26.5625 21.117188 -25.972656 22.890625 -24.796875 L 22.578125 -19.015625 L 22.421875 -18.96875 C 21.960938 -19.769531 21.0625 -20.425781 19.71875 -20.9375 C 18.4375 -21.414062 17.09375 -21.65625 15.6875 -21.65625 C 14.28125 -21.65625 13.050781 -21.429688 12 -20.984375 C 10.945312 -20.546875 10.054688 -19.914062 9.328125 -19.09375 C 7.785156 -17.40625 7.015625 -15.175781 7.015625 -12.40625 C 7.015625 -9.988281 7.695312 -8.046875 9.0625 -6.578125 C 10.414062 -5.128906 12.164062 -4.40625 14.3125 -4.40625 C 16.675781 -4.40625 18.269531 -5.019531 19.09375 -6.25 C 19.351562 -6.644531 19.484375 -7.085938 19.484375 -7.578125 L 19.484375 -10.84375 L 16.953125 -10.84375 C 15.597656 -10.84375 14.859375 -10.722656 14.734375 -10.484375 L 14.6875 -10.5 L 14.5 -15.625 C 14.863281 -15.519531 16.347656 -15.46875 18.953125 -15.46875 L 21.265625 -15.46875 C 22.703125 -15.46875 23.878906 -15.566406 24.796875 -15.765625 Z M 24.859375 -15.71875 "/></g></g></g><g fill="rgb(100%, 100%, 100%)" fill-opacity="1"><g transform="translate(329.071314, 314.794609)"><g><path d="M 16.484375 -4.703125 C 17.296875 -4.703125 17.859375 -4.78125 18.171875 -4.9375 L 18.25 -4.921875 L 18.046875 0 L 3.375 0 L 3.375 -26.203125 C 3.726562 -26.179688 4.117188 -26.160156 4.546875 -26.140625 L 5.921875 -26.109375 C 6.835938 -26.078125 7.828125 -26.0625 8.890625 -26.0625 C 11.890625 -26.0625 14.851562 -26.113281 17.78125 -26.21875 C 17.632812 -25.070312 17.5625 -23.539062 17.5625 -21.625 C 17.5625 -21.414062 17.570312 -21.253906 17.59375 -21.140625 L 17.5625 -21.09375 C 16.882812 -21.289062 15.914062 -21.390625 14.65625 -21.390625 L 8.484375 -21.390625 L 8.484375 -16.390625 L 13.125 -16.390625 C 14.5625 -16.390625 15.425781 -16.425781 15.71875 -16.5 L 15.78125 -11.65625 C 15.15625 -11.726562 14.34375 -11.765625 13.34375 -11.765625 L 8.484375 -11.765625 L 8.484375 -4.703125 Z M 16.484375 -4.703125 "/></g></g></g></svg>